<svg xmlns="http://www.w3.org/2000/svg" viewBox="0 0 131.83 148.04"><defs><style>.cls-1{fill:#6f9984;}.cls-2{fill:#333;}</style></defs><g id="Capa_2" data-name="Capa 2"><g id="Capa_1-2" data-name="Capa 1"><path class="cls-1" d="M55.88,62.82V13.76C55.88,6.71,50.6.39,43.56,0A13,13,0,0,0,29.84,13v49.8A1.19,1.19,0,0,0,31,64H54.69A1.19,1.19,0,0,0,55.88,62.82Z"/><path class="cls-1" d="M96.48,122H59a3.15,3.15,0,0,1-3.14-3.14V103.21A1.19,1.19,0,0,0,54.69,102H31a1.19,1.19,0,0,0-1.19,1.19V134A14.06,14.06,0,0,0,43.9,148H95.75c7,0,13.37-5.28,13.74-12.32A13,13,0,0,0,96.48,122Z"/><path class="cls-2" d="M128.11,94.14a32.86,32.86,0,0,0-4.35-6.49l-.16-.18a7,7,0,0,1,0-9.25l0-.06A31.65,31.65,0,0,0,128,71.72a36.44,36.44,0,0,0,2.82-7.35,29.52,29.52,0,0,0,1-7.44,37.46,37.46,0,0,0-3.08-15.16A39.67,39.67,0,0,0,108,21,37.47,37.47,0,0,0,92.81,17.9H63.05a1.19,1.19,0,0,0-1.19,1.2V42.76A1.19,1.19,0,0,0,63.05,44H92.81a12.88,12.88,0,0,1,13,13,13.13,13.13,0,0,1-1,5.12,12.73,12.73,0,0,1-6.9,7,13,13,0,0,1-5.08,1H25.69c-7,0-13.37,5.28-13.74,12.32A13,13,0,0,0,25,96H92.81a12.87,12.87,0,0,1,12,7.9,15.61,15.61,0,0,1,1,5.08c.19,2.68-1.19,5.52-2.17,7.11a1,1,0,0,0,.58,1.56c6.57,2.51,12.52,10.73,10.64,20.31a1.23,1.23,0,0,0,1.91,1.28c5.59-4.13,10.4-11.43,12-15.11A37.45,37.45,0,0,0,131.83,109a30.94,30.94,0,0,0-1-7.49A33.59,33.59,0,0,0,128.11,94.14Z"/><path class="cls-2" d="M23.87,42.76V19.1a1.2,1.2,0,0,0-1.2-1.2H13.76C6.71,17.9.39,23.18,0,30.23A13,13,0,0,0,13,44h9.65A1.19,1.19,0,0,0,23.87,42.76Z"/></g></g></svg>