<svg xmlns="http://www.w3.org/2000/svg" viewBox="0 0 256.79 99.31"><defs><style>.cls-1{fill:#6f9984;}.cls-2{fill:#333;}</style></defs><g id="Capa_2" data-name="Capa 2"><g id="Capa_1-2" data-name="Capa 1"><path class="cls-1" d="M37.48,42.14V9.23c0-4.73-3.54-9-8.26-9.22A8.75,8.75,0,0,0,20,8.74v33.4a.8.8,0,0,0,.8.8H36.68A.8.8,0,0,0,37.48,42.14Z"/><path class="cls-1" d="M64.72,81.83H39.59a2.11,2.11,0,0,1-2.11-2.1V69.23a.8.8,0,0,0-.8-.8H20.81a.8.8,0,0,0-.8.8V89.87a9.44,9.44,0,0,0,9.44,9.44H64.23c4.73,0,9-3.55,9.22-8.27A8.75,8.75,0,0,0,64.72,81.83Z"/><path class="cls-2" d="M85.94,63.15A22.13,22.13,0,0,0,83,58.79l-.11-.12a4.73,4.73,0,0,1,0-6.2l0,0a21.56,21.56,0,0,0,2.92-4.32,24,24,0,0,0,1.88-4.93,19.54,19.54,0,0,0,.67-5A25.2,25.2,0,0,0,86.36,28,26.58,26.58,0,0,0,72.42,14.08,25.12,25.12,0,0,0,62.26,12h-20a.8.8,0,0,0-.8.8V28.68a.8.8,0,0,0,.8.8h20A8.63,8.63,0,0,1,68.44,32a8.47,8.47,0,0,1,1.85,2.77A8.57,8.57,0,0,1,71,38.19a8.86,8.86,0,0,1-.67,3.44,8.45,8.45,0,0,1-4.62,4.65,8.61,8.61,0,0,1-3.41.67h-45c-4.73,0-9,3.55-9.22,8.27a8.72,8.72,0,0,0,8.72,9.2H62.26A8.63,8.63,0,0,1,68.44,67a8.57,8.57,0,0,1,1.85,2.77A10.34,10.34,0,0,1,71,73.13a8.75,8.75,0,0,1-1.45,4.77.68.68,0,0,0,.39,1A12.21,12.21,0,0,1,77,92.57a.83.83,0,0,0,1.29.86,29.25,29.25,0,0,0,8-10.13,25.2,25.2,0,0,0,2.07-10.17,21.17,21.17,0,0,0-.63-5A23,23,0,0,0,85.94,63.15Z"/><path class="cls-2" d="M16,28.68V12.81a.8.8,0,0,0-.8-.8h-6C4.5,12,.26,15.55,0,20.28a8.74,8.74,0,0,0,8.73,9.2h6.47A.8.8,0,0,0,16,28.68Z"/><path class="cls-2" d="M126.64,90.78H114.37a1,1,0,0,1-1-1V61.2a4.43,4.43,0,0,0-4-4.5A4.26,4.26,0,0,0,104.82,61V94.7a4.61,4.61,0,0,0,4.6,4.61h17.22a4.27,4.27,0,1,0,0-8.53Z"/><path class="cls-2" d="M254.37,82a4.61,4.61,0,0,0-6.26,1.85,11.8,11.8,0,1,1-1.45-13.34,4.61,4.61,0,1,0,7-6,21,21,0,1,0,2.6,23.8A4.62,4.62,0,0,0,254.37,82Z"/><path class="cls-2" d="M210.92,58.05a4.62,4.62,0,0,0-4.62,4.62V93.81a4.62,4.62,0,1,0,9.23,0V62.67A4.61,4.61,0,0,0,210.92,58.05Z"/><path class="cls-2" d="M200.61,73.66h-9.33a4.62,4.62,0,1,0,0,9.23h3.77a11.8,11.8,0,1,1-2.63-13.08,4.62,4.62,0,0,0,6.43-6.63,21,21,0,0,0-32.78,4.43,21,21,0,1,0,0,21.32,21,21,0,0,0,39.16-10.66A4.61,4.61,0,0,0,200.61,73.66ZM147.94,90.07a11.8,11.8,0,1,1,11.81-11.8A11.82,11.82,0,0,1,147.94,90.07Z"/><path class="cls-2" d="M109.49,53.47h15.78a11.71,11.71,0,0,0,4.76-1,12.46,12.46,0,0,0,3.89-2.64A12.63,12.63,0,0,0,136.56,46a11.71,11.71,0,0,0,1-4.76,9.85,9.85,0,0,0-.3-2.36,10.83,10.83,0,0,0-.87-2.32,10.55,10.55,0,0,0-1.37-2l-.05-.06a2.18,2.18,0,0,1,0-2.9v0a9.71,9.71,0,0,0,1.37-2,11.84,11.84,0,0,0,.89-2.31,9.19,9.19,0,0,0,.31-2.34,11.76,11.76,0,0,0-1-4.77A12.5,12.5,0,0,0,130,13.54a11.88,11.88,0,0,0-4.76-1H109.49a4.67,4.67,0,0,0-4.67,4.67V48.8A4.67,4.67,0,0,0,109.49,53.47ZM113,22.9a2.14,2.14,0,0,1,2.14-2.14h10.13a4,4,0,0,1,2.89,1.18,4.12,4.12,0,0,1,.87,1.3,4,4,0,0,1,.31,1.6,4.16,4.16,0,0,1-.31,1.61,4.06,4.06,0,0,1-.87,1.31,4,4,0,0,1-2.89,1.18H115.14A2.13,2.13,0,0,1,113,26.81Zm0,16.37a2.14,2.14,0,0,1,2.14-2.14h10.13a4,4,0,0,1,2.89,1.18,4.12,4.12,0,0,1,.87,1.3,4,4,0,0,1,.31,1.6,4.06,4.06,0,0,1-4.07,4.08H115.14A2.14,2.14,0,0,1,113,43.15Z"/><path class="cls-2" d="M189,53.47h14.42a4.68,4.68,0,1,0,0-9.35h-9.75V37.7h6.22a4.68,4.68,0,1,0,0-9.35h-6.22V21.93h8.2a4.68,4.68,0,1,0,0-9.36H189a4.68,4.68,0,0,0-4.68,4.68V48.79A4.67,4.67,0,0,0,189,53.47Z"/><path class="cls-2" d="M144.83,53.47a4.68,4.68,0,0,0,4.68-4.68V17.25a4.68,4.68,0,1,0-9.35,0V48.79A4.67,4.67,0,0,0,144.83,53.47Z"/><path class="cls-2" d="M157.25,53.47a4.67,4.67,0,0,0,4.67-4.68V37.07l1.83-1.57,8.72,15.58a4.68,4.68,0,0,0,4.09,2.39,4.68,4.68,0,0,0,4.07-7L171,29.27l9.86-8.48a4.68,4.68,0,1,0-6.1-7.09l-12.82,11V17.25a4.68,4.68,0,1,0-9.35,0V48.79A4.67,4.67,0,0,0,157.25,53.47Z"/></g></g></svg>